#!OML:ASF F:\VICON\USERDATA\INSTALL\rory3\rory3.ASF
:FULLY-SPECIFIED
:DEGREES
110
root 0.6980492649655087 17.607729174161225 63.207692387385755 -1.934079298502307 0.6352524825542731 -0.3976727795861241
lfemur -7.692668701319516 -4.140794906155902 -21.701826788298952
ltibia 20.08192350557483
lfoot -14.256944846310947 0.36163231731351475
ltoes -5.6069417510227675
rfemur -21.444260180299846 -1.2661191925374622 25.256672658643286
rtibia 47.194454215349445
rfoot 0.6754461286411324 -13.818889197061718
rtoes 9.651939507030095
lowerback 11.241536161981578 -0.694101305913606 -0.2729913603189089
upperback -0.722733264323263 -0.898936931745445 1.8763973963876193
thorax -6.079086652390112 -0.48070679088289575 2.7564566517699127
lowerneck -16.30522625312619 -3.0748865656639524 -3.184516679910926
upperneck 22.049482585623732 -3.812983097486521 1.7664857738905329
head 9.655302343084928 -1.8383933539657065 0.7640033617160402
lclavicle -2.0268917672757235e-15 -7.120234418437552e-16
lhumerus -33.14030431104454 6.36059606308089 79.6214534560127
lradius 20.575987776677152
lwrist 5.275925046641287
lhand -28.366698219550255 20.10881772085307
lfingers 7.12502
lthumb -1.8048897995153026 50.29297233636634
rclavicle -2.02972892152166e-15 -7.138224594066901e-16
rhumerus -29.547884809694217 -21.87179858946905 -75.57594937854338
rradius 21.955754692449453
rwrist 8.792025193109442
rhand -17.461321871290995 22.422212294866448
rfingers 7.12502
rthumb 8.268020292718623 -7.736902104178725
111
root 0.6955081502588928 17.586190164353756 63.403718353442876 -1.88437582714971 0.5833456656863284 -0.3920956475366051
lfemur -5.526231000829293 -4.018479542885322 -22.07392140065354
ltibia 20.087997024603382
lfoot -14.990491382393495 0.4627569771855806
ltoes -6.110703742520105
rfemur -22.768006228151926 -0.9507671938203197 25.029635043508197
rtibia 46.06557994672328
rfoot -0.48168787178324113 -13.799617944163819
rtoes 6.075596374128697
lowerback 11.390423972191769 -0.7835427303354648 -0.3732052899728786
upperback -0.6534103351200455 -1.0216160224799795 1.9886189990619767
thorax -6.013821321820103 -0.5367198441415801 2.972984584409587
lowerneck -16.341041967667742 -3.067212035655036 -3.2411075041974757
upperneck 22.035110095959713 -3.7943740582115177 1.7625311067670681
head 9.651365446779863 -1.8317641468388122 0.7730426040261683
lclavicle -2.0277227634431937e-15 -7.125567656652252e-16
lhumerus -32.157979643952196 4.94088304964122 79.87502700424311
lradius 21.488822210566134
lwrist 5.041668043469882
lhand -28.667284411052886 20.0534886632417
lfingers 7.12502
lthumb -2.058302341324064 50.371932826086265
rclavicle -2.029622417888599e-15 -7.137544536210332e-16
rhumerus -29.885074285670783 -21.96006019227497 -75.3213191281131
rradius 22.01495448706399
rwrist 8.405716818672884
rhand -17.581392178129853 22.402056387478975
rfingers 7.12502
rthumb 8.202013359368694 -7.608667714943963
112
root 0.6899471554046567 17.58323539002823 63.445770506044994 -1.842434046928875 0.5032459305839369 -0.4100234672077496
lfemur -3.420899791744815 -3.868564036499791 -22.375197706752672
ltibia 19.837060284774417
lfoot -15.238277996797057 0.21019690872121233
ltoes -7.246554646917105
rfemur -23.659355788630876 -0.3234674502019179 24.781723681474336
rtibia 44.03030781659834
rfoot -1.3518221467381277 -13.485547858450351
rtoes 3.2303306712975424
lowerback 11.510368689130463 -0.836989172646714 -0.4396878201553793
upperback -0.5769723627893877 -1.1111934271077926 2.072888618430865
thorax -5.955582800738296 -0.5906899808347981 3.110497796710658
lowerneck -16.384358836779448 -3.0654204354861116 -3.280375652572219
upperneck 22.030890732370356 -3.7763108595275163 1.7731974006104672
head 9.651028876318755 -1.8248546557671093 0.779636129959261
lclavicle -2.0276178958084956e-15 -7.124904911568161e-16
lhumerus -31.168833500425617 3.5984920657330157 80.02293800850858
lradius 22.541752012939675
lwrist 4.975810739140093
lhand -28.89164290828524 20.234050907140972
lfingers 7.12502
lthumb -2.283850740278326 50.562171921118015
rclavicle -2.029177515022892e-15 -7.134703430422232e-16
rhumerus -30.20864023514614 -21.983009862966874 -75.10943068886047
rradius 21.973014494334617
rwrist 8.077390347712186
rhand -17.683721994094025 22.372375230482973
rfingers 7.12502
rthumb 8.135163695769618 -7.615033173704755
113
root 0.6805850163324179 17.58195665369556 63.411175643515726 -1.866063256114184 0.4253099021723048 -0.3922274233133538
lfemur -1.3164094130823791 -3.7413626555908346 -22.614648887210368
ltibia 19.418110423878467
lfoot -15.016453761452167 -0.4397670003729752
ltoes -8.503693824118923
rfemur -24.23229543626102 0.36790139124916665 24.487960296011945
rtibia 41.671913315875514
rfoot -2.207012573420964 -13.363069289246546
rtoes 1.7569457271639082
lowerback 11.616880576089653 -0.8761832835752374 -0.5128657052996537
upperback -0.47374919735056353 -1.172710956338381 2.124403834692474
thorax -5.909004684274265 -0.6367156000890628 3.1922840310738962
lowerneck -16.430736115996066 -3.067023355413951 -3.327741562768948
upperneck 22.016249760138162 -3.774772661711613 1.798185898589474
head 9.648208937242096 -1.822957932234149 0.7878226821183977
lclavicle -2.027458992339818e-15 -7.123900278891329e-16
lhumerus -30.203632012494918 2.429830859349625 80.08517319741343
lradius 23.603187818934572
lwrist 5.572079479071782
lhand -29.06707978277465 20.137077505584458
lfingers 7.12502
lthumb -2.45630201299672 50.50095441649535
rclavicle -2.029104252596094e-15 -7.13423544143441e-16
rhumerus -30.461180716973765 -22.02412409283362 -74.91961605432854
rradius 21.846744461735092
rwrist 7.811544165919522
rhand -17.764676203874398 22.305909405975825
rfingers 7.12502
rthumb 8.058903915248408 -7.736689531373269
